HIERARCHY
ROOT Hips
{
  OFFSET -125.086 92.215 135.881
  CHANNELS 6 Xposition Yposition Zposition Zrotation Xrotation Yrotation
  JOINT LeftUpLeg
  {
    OFFSET 8.64259 1.95398 -2.38835
    CHANNELS 3 Zrotation Xrotation Yrotation
    JOINT LeftLeg
    {
      OFFSET 43.7702 0 0
      CHANNELS 3 Zrotation Xrotation Yrotation
      JOINT LeftFoot
      {
        OFFSET 40.6238 0 0
        CHANNELS 3 Zrotation Xrotation Yrotation
        JOINT LeftToeBase
        {
          OFFSET 12.7242 0 0
          CHANNELS 3 Zrotation Xrotation Yrotation
          End Site
          {
            OFFSET 0 0 0
          }
        }
      }
    }
  }
  JOINT RightUpLeg
  {
    OFFSET -8.2249 1.95398 -2.59336
    CHANNELS 3 Zrotation Xrotation Yrotation
    JOINT RightLeg
    {
      OFFSET 43.5653 0 0
      CHANNELS 3 Zrotation Xrotation Yrotation
      JOINT RightFoot
      {
        OFFSET 40.6238 0 0
        CHANNELS 3 Zrotation Xrotation Yrotation
        JOINT RightToeBase
        {
          OFFSET 12.7242 0 0
          CHANNELS 3 Zrotation Xrotation Yrotation
          End Site
          {
            OFFSET 0 0 0
          }
        }
      }
    }
  }
  JOINT Spine
  {
    OFFSET 0.165834 0.87714 6.61349
    CHANNELS 3 Zrotation Xrotation Yrotation
    JOINT Spine1
    {
      OFFSET 7.38963 1.71661e-005 0
      CHANNELS 3 Zrotation Xrotation Yrotation
      JOINT Spine2
      {
        OFFSET 11.9445 1.14441e-005 0
        CHANNELS 3 Zrotation Xrotation Yrotation
        JOINT Spine3
        {
          OFFSET 14.7254 4.19617e-005 0
          CHANNELS 3 Zrotation Xrotation Yrotation
          JOINT Spine4
          {
            OFFSET 10.9679 0 0
            CHANNELS 3 Zrotation Xrotation Yrotation
            JOINT RightShoulder
            {
              OFFSET 2.46616 -1.6653 3.69651
              CHANNELS 3 Zrotation Xrotation Yrotation
              JOINT RightArm
              {
                OFFSET 13.0012 0 0
                CHANNELS 3 Zrotation Xrotation Yrotation
                JOINT RightForeArm
                {
                  OFFSET 28.7848 1.52588e-005 0
                  CHANNELS 3 Zrotation Xrotation Yrotation
                  JOINT RightHand
                  {
                    OFFSET 26.5688 1.52588e-005 0
                    CHANNELS 3 Zrotation Xrotation Yrotation
                    End Site
                    {
                      OFFSET 0 0 0
                    }
                  }
                }
              }
            }
            JOINT LeftShoulder
            {
              OFFSET 2.38034 -1.29275 -3.7523
              CHANNELS 3 Zrotation Xrotation Yrotation
              JOINT LeftArm
              {
                OFFSET 16.3182 6.10352e-005 0
                CHANNELS 3 Zrotation Xrotation Yrotation
                JOINT LeftForeArm
                {
                  OFFSET 27.0901 0 0
                  CHANNELS 3 Zrotation Xrotation Yrotation
                  JOINT LeftHand
                  {
                    OFFSET 24.5451 1.52588e-005 0
                    CHANNELS 3 Zrotation Xrotation Yrotation
                    End Site
                    {
                      OFFSET 0 0 0
                    }
                  }
                }
              }
            }
            JOINT Neck
            {
              OFFSET 5.0226 -0.0266342 0
              CHANNELS 3 Zrotation Xrotation Yrotation
              JOINT Head
              {
                OFFSET 6.69363 2.86102e-005 0
                CHANNELS 3 Zrotation Xrotation Yrotation
                End Site
                {
                  OFFSET 0 0 0
                }
              }
            }
          }
        }
      }
    }
  }
}
MOTION
Frames:	18
Frame Time:	0.0416667
244.366 99.5354 -229.974 -92.7391 -59.4431 -91.7206 -176.482 -1.01514 88.7448 -8.8537 17.9436 3.82373 58.0377 4.33634 10.9759 41.7741 -1.10966 1.13857 175.357 4.69307 90.3728 -20.6429 -7.64401 0.413365 63.3018 -1.7191 8.53412 36.5928 -1.08171 -4.75577 -0.522131 7.46837 -90.0336 11.9378 -1.05389 0.0468242 0.267289 -1.05081 0.0931639 -22.2711 -1.01926 -0.272123 -2.2585 -1.01924 -0.272119 111.498 -54.4022 -68.4043 16.4574 -15.4401 -32.0476 24.6487 -15.576 0.0115924 -31.1568 1.40568 -10.3365 -73.3948 -47.639 103.822 -45.0295 -5.80923 -22.7033 16.9055 59.9583 -15.6923 -4.04057 -0.0788128 -5.88614 2.85925 -0.416837 -27.413 -17.9863 0.950364 25.4776 
244.121 99.4964 -229.91 -92.5579 -59.2927 -91.9273 -176.243 -1.09647 88.627 -8.7104 18.0218 3.45004 58.5241 4.77735 11.8209 40.2899 -0.968268 -1.07699 175.114 4.76506 90.0187 -20.9314 -6.36412 0.473971 64.6707 -2.07048 9.90509 34.2589 -0.64781 -4.17942 -0.488794 7.49945 -90.0037 11.8758 -0.973695 0.0969053 0.205183 -0.968496 0.139665 -22.3328 -0.957803 -0.200244 -2.32018 -0.9578 -0.200236 111.32 -54.6117 -68.6992 17.016 -14.7742 -31.1887 23.2501 -17.3134 0.0116966 -29.0541 0.963316 -9.00434 -73.8786 -47.3226 103.09 -45.3644 -5.34422 -23.0699 15.8726 58.9221 -14.8848 -3.62223 -0.0788743 -5.43521 3.86974 -0.518228 -27.7619 -18.5503 0.923517 26.2579 
243.969 99.6075 -229.818 -92.8132 -59.5912 -92.2547 -176.264 -1.24703 88.6415 -8.72735 18.0575 3.48897 58.5254 4.66362 11.0842 40.8918 -1.02671 -0.370153 175.343 4.80621 90.08 -21.2092 -5.66561 0.190548 63.3087 -0.966716 10.3161 35.8638 -1.01303 -3.07588 -0.519142 7.51599 -90.0063 11.8428 -1.03526 0.0979786 0.172222 -1.02995 0.143442 -22.3661 -1.01684 -0.217729 -2.3535 -1.01684 -0.217731 111.025 -54.4075 -69.1003 17.397 -15.0498 -29.8212 22.595 -16.7549 0.0116617 -27.0468 0.419328 -7.01652 -73.6056 -47.4055 103.512 -45.4089 -5.0738 -23.2267 16.267 58.8029 -15.5259 -3.57456 -0.0788582 -5.55714 5.17478 -0.293007 -27.613 -19.6766 1.07316 26.9475 
243.891 99.638 -229.706 -92.9411 -59.8283 -92.1982 -176.191 -1.42679 88.7751 -8.75419 18.4858 3.59529 58.523 4.68847 11.4651 40.3927 -0.983934 -0.358391 175.741 4.53247 90.2689 -21.0982 -0.521316 -0.174304 63.8685 -0.0298795 15.3991 33.295 -0.628458 -1.28741 -0.532732 7.51166 -90.0481 11.8512 -1.08198 0.0196568 0.180685 -1.08008 0.0672511 -22.3579 -1.03787 -0.306477 -2.34523 -1.03786 -0.306474 110.891 -54.1918 -69.2624 17.3905 -15.5139 -28.4624 21.7712 -16.1089 0.011623 -24.7521 0.213617 -6.21388 -73.3704 -47.6588 103.859 -45.5062 -5.34438 -23.287 17.174 59.506 -16.478 -4.17071 -0.0707602 -5.59408 6.24149 0.118359 -26.8398 -20.6641 1.36081 26.8288 
243.844 99.5904 -229.698 -93.1433 -59.6733 -92.3877 -176.037 -1.56736 88.8358 -8.72509 18.3464 3.47899 58.7384 4.89326 11.7024 40.4648 -0.986096 -0.81408 175.44 4.32231 90.1602 -21.0292 -0.495483 0.123785 64.5521 -0.430454 15.1252 32.3211 -0.496387 -0.850067 -0.503408 7.49845 -90.0649 11.8773 -1.03153 -0.0188352 0.20677 -1.03135 0.0265764 -22.3314 -0.978181 -0.328006 -2.31878 -0.978179 -0.328019 110.782 -53.9765 -69.3907 17.3619 -16.3662 -26.9923 21.1146 -14.2107 0.0115191 -25.4181 -0.126308 -4.64044 -73.4012 -47.9229 103.79 -45.4531 -5.38723 -23.279 16.9306 59.7362 -16.1001 -4.09481 -0.0672242 -5.92027 6.30147 0.740086 -26.4494 -20.8107 1.81912 27.1796 
243.855 99.5622 -229.733 -92.917 -59.5584 -92.4266 -176.191 -1.46253 88.6117 -8.63162 17.8483 3.41496 58.7335 4.778 11.1093 40.8582 -1.0295 -0.11323 175.406 4.62626 89.9908 -21.3288 -0.935268 0.0601809 64.6274 -0.53909 14.5952 32.8556 -0.583 -0.858366 -0.487814 7.47968 -90.0562 11.9149 -0.996389 -0.00474368 0.244327 -0.995649 0.0390965 -22.2937 -0.948907 -0.304021 -2.28103 -0.948904 -0.304018 111.126 -54.09 -68.9008 16.6612 -17.343 -26.1024 20.8484 -12.2667 0.0155579 -28.5492 -0.636502 -2.6435 -73.1716 -48.2308 104.121 -44.764 -4.77428 -23.0989 15.0676 58.0799 -14.7865 -4.27136 -0.0441737 -7.13139 6.75839 1.27331 -25.8975 -21.023 2.25965 27.343 
243.821 99.5651 -229.78 -93.2702 -59.6701 -92.6599 -176.106 -1.61968 88.741 -8.67844 17.9667 3.4555 58.7566 4.72371 10.5072 41.1204 -1.05304 1.17693 175.672 4.58594 90.2168 -21.5979 -0.553396 -0.159805 64.4828 -0.41239 14.8934 33.214 -0.595416 -1.64003 -0.505811 7.48519 -90.064 11.9039 -1.03595 -0.0161161 0.233344 -1.03564 0.0294925 -22.3049 -0.983192 -0.326746 -2.29224 -0.983201 -0.326748 111.217 -54.2083 -68.7857 16.7146 -17.8647 -24.8392 19.9182 -12.161 -0.00323986 -23.0644 -0.47196 -2.84229 -73.311 -47.9072 103.931 -45.3898 -5.57508 -23.0558 16.4656 59.9892 -15.3026 -4.06689 -0.0723245 -5.62084 6.93591 1.8056 -25.6782 -21.1775 2.70532 27.5742 
243.605 99.5343 -229.8 -93.8426 -59.9104 -93.3863 -176.264 -1.94351 88.6183 -8.72509 18.1153 3.59824 58.6775 4.65443 10.4585 41.748 -1.10891 1.48689 175.555 4.28546 90.113 -21.7605 0.182534 -0.125177 64.891 -0.541147 14.8355 32.9334 -0.627075 -0.380907 -0.533389 7.53949 -90.0805 11.7952 -1.09862 -0.0441308 0.124724 -1.09948 0.00425541 -22.4138 -1.03456 -0.372304 -2.4012 -1.03455 -0.372307 111.329 -53.9777 -68.5837 16.774 -18.1441 -24.1615 19.0033 -11.4974 -1.14374 -23.12 -0.579112 -2.31857 -73.4148 -48.0681 103.757 -45.5741 -5.74956 -23.2755 15.8516 59.8453 -14.1072 -4.30648 -0.0539731 -6.52415 8.07065 2.2128 -24.2459 -21.8476 3.03139 26.6695 
242.933 99.5273 -229.596 -93.7258 -60.6012 -93.5891 -176.164 -2.0734 88.6546 -8.85915 18.8618 3.57611 59.2283 5.29523 11.7976 41.468 -1.0796 -0.54005 175.703 4.01678 90.1548 -21.8972 1.06431 -0.32683 65.1566 -0.10462 16.012 32.7753 -0.530117 -1.49559 -0.635502 7.52609 -90.0764 11.8223 -1.29969 -0.0139683 0.151995 -1.29904 0.0432487 -22.388 -1.2354 -0.404002 -2.37536 -1.23541 -0.404005 111.106 -53.7489 -68.8761 18.6579 -16.8287 -22.7877 17.4954 -13.0838 -1.45769 -22.6322 -0.649369 -1.89333 -73.2045 -48.043 104.085 -45.2923 -5.73414 -22.8823 15.5143 59.1184 -14.0468 -3.71829 -0.0648045 -6.55818 8.88476 2.81462 -22.6533 -22.5212 3.45291 25.6546 
242.441 99.4397 -229.455 -93.3376 -60.3913 -92.9841 -176.115 -2.04451 89.035 -9.08608 18.817 3.83572 58.9971 5.14646 10.8528 42.7844 -1.18117 2.15955 176.224 4.19675 90.7841 -22.3629 -0.0698836 -0.620031 65.0144 -0.114102 15.5728 33.7768 -0.617482 -3.01148 -0.638724 7.52215 -90.1319 11.8295 -1.33211 -0.121069 0.159241 -1.33614 -0.0623176 -22.3807 -1.23412 -0.51588 -2.36809 -1.23414 -0.515891 111.094 -54.2673 -68.9764 20.2158 -14.5125 -21.7214 15.9238 -16.0323 -0.516972 -21.4851 -0.451719 -2.77898 -73.2641 -47.9262 104.003 -45.0968 -6.15907 -22.407 15.7325 58.2993 -14.3586 -4.28212 -0.0446432 -7.13267 9.42956 3.05121 -21.9717 -22.4485 3.57741 26.0981 
241.837 99.1804 -229.119 -92.9881 -59.9316 -93.1173 -177.155 -1.89038 88.0054 -9.65113 16.9322 4.05474 59.2019 6.25583 11.4476 43.6277 -1.23679 2.15548 175.683 4.76671 90.2924 -24.0277 -1.47853 -0.268715 66.4688 -0.770113 14.3048 33.1242 -0.571636 -1.79099 -0.618377 7.51868 -90.1114 11.8366 -1.28204 -0.0852427 0.166326 -1.28456 -0.0287211 -22.3734 -1.19714 -0.466662 -2.36071 -1.19716 -0.466662 110.965 -54.2113 -69.1577 23.1416 -11.0583 -20.6082 13.9796 -20.7534 0.0551995 -21.2727 -0.585265 -2.03765 -73.1501 -47.6875 104.2 -45.0229 -6.57145 -21.6235 16.8936 57.8084 -15.7947 -4.83809 -0.0144731 -7.85946 10.8437 2.99204 -20.6791 -23.3097 3.36176 25.6044 
241.16 98.3875 -228.675 -93.9255 -59.3571 -94.248 -179.095 2.12322 89.3825 -19.3273 13.9738 3.62345 60.4021 8.68906 12.6099 48.9685 -1.3922 5.34748 175.029 5.32516 89.6391 -27.3708 -2.77194 0.0845962 69.249 -1.07791 15.3551 33.0588 -0.489894 -2.94966 -0.473964 7.6279 -90.1726 11.6173 -1.02368 -0.237933 -0.0532399 -1.03318 -0.192652 -22.5909 -0.904845 -0.534612 -2.57823 -0.904852 -0.534619 110.632 -53.2889 -69.5079 26.7016 -7.02107 -19.1726 11.1589 -24.9758 0.185846 -18.0038 -0.531886 -1.77495 -72.7245 -48.4058 104.797 -44.6704 -6.61103 -21.5508 17.5473 57.2976 -16.929 -5.14809 -0.0174959 -7.37253 13.7885 2.88885 -15.8147 -25.1853 3.05511 20.4924 
240.144 97.2925 -228.055 -95.2037 -59.5477 -95.0875 -179.554 12.6684 88.0523 -40.8532 7.60324 3.78628 60.1128 7.46872 5.86876 54.2909 -0.958373 11.2271 174.933 5.52672 89.8951 -31.2903 -1.90335 0.260906 73.3334 -1.09489 17.2853 30.0245 0.0561667 -2.86239 -0.287182 7.81253 -90.2598 11.2473 -0.692336 -0.448876 -0.423497 -0.711408 -0.417978 -22.959 -0.52543 -0.6362 -2.94633 -0.525424 -0.636199 110.185 -53.435 -70.1938 29.4897 -2.38989 -16.9169 6.59612 -32.1644 -2.82864 -16.7515 -0.740388 -0.062712 -72.715 -48.7271 104.782 -44.0954 -6.3886 -21.5442 18.5792 56.237 -18.9148 -6.26907 -0.0102213 -6.7298 13.9235 1.01989 -15.0669 -21.7774 1.5271 21.397 
238.767 96.7834 -226.666 -96.4278 -58.7807 -96.6853 -177.715 20.6842 87.3514 -52.4484 7.59694 2.47942 60.6201 8.16857 8.13385 53.2184 -0.489602 15.8981 174.202 4.2046 89.0444 -32.715 -2.39785 0.532595 75.4423 -1.3924 17.4408 33.0876 -0.504832 -2.69506 0.00573458 7.98659 -90.2631 10.901 -0.110244 -0.513313 -0.770061 -0.132741 -0.507967 -23.3044 0.049129 -0.522714 -3.29181 0.049118 -0.522721 109.809 -52.8991 -70.6791 31.0345 0.0683446 -14.7736 1.16047 -37.2873 -9.1274 -13.9947 -1.05881 3.63376 -72.5247 -49.4455 105.007 -43.0617 -6.38929 -20.4846 18.764 55.8121 -20.5387 -6.55818 0.0174826 -7.30822 14.2625 0.0204538 -10.6604 -21.1876 0.321465 16.3607 
237.368 96.887 -224.825 -95.6223 -58.0673 -97.4934 -176.473 24.0049 85.7504 -43.1574 5.74602 0.492678 59.3989 6.79987 7.08013 50.3316 -1.09556 10.2008 174.192 2.81314 87.7685 -31.8634 -0.948551 -0.303306 75.9945 -1.33665 19.1483 36.4298 -1.14574 -1.73699 0.196908 8.03461 -90.0667 10.8046 0.361314 -0.166002 -0.866308 0.353655 -0.181749 -23.4018 0.394493 -0.049735 -3.38921 0.394499 -0.0497375 110.286 -52.9926 -69.9789 31.4044 -0.389177 -15.6511 -0.559756 -39.8775 -11.5989 -14.4792 -1.36168 5.86892 -73.2532 -48.9954 103.931 -42.9551 -7.6328 -18.5569 19.3444 56.5895 -20.4647 -7.26185 0.0393765 -7.41666 14.175 -0.630842 -8.6835 -20.4587 -0.488268 14.6311 
235.525 96.9962 -222.329 -94.6328 -58.0899 -98.1229 -178.673 19.9384 85.1562 -15.4983 5.73388 -0.18294 49.401 1.03818 3.7743 46.0405 -1.05041 11.901 173.462 1.17089 86.4489 -31.0252 -1.6757 -0.594288 75.7518 -2.16475 18.011 37.3477 -1.29519 -1.94227 0.320549 8.16755 -89.9591 10.5389 0.657299 0.0227168 -1.13186 0.657658 -0.00624195 -23.6682 0.620069 0.219227 -3.65559 0.620085 0.219218 110.296 -51.942 -69.8065 30.6289 -3.60229 -17.1611 -1.74619 -36.5371 -15.9905 -15.6426 -1.30544 4.58313 -73.0549 -49.756 104.171 -43.4512 -8.90505 -18.1677 17.5041 58.4036 -16.5126 -6.87926 0.0487077 -7.88136 15.0813 -0.475877 -4.93418 -18.4908 -0.639225 11.583 
233.265 96.6149 -218.669 -91.7243 -57.1317 -94.3979 179.709 23.4013 86.7888 -7.78176 8.51431 1.34304 51.4419 -1.29312 2.13764 43.668 -1.07791 12.7145 173.313 -0.632086 87.0492 -29.6663 -1.42265 -0.324238 74.3321 -2.06621 19.4194 39.1533 -1.62055 1.06582 0.433228 8.15489 -90.0252 10.5648 0.85138 -0.126452 -1.10589 0.844978 -0.163805 -23.6433 0.850016 0.135285 -3.6306 0.850008 0.13528 109.974 -51.924 -70.292 29.6124 -6.10783 -19.2722 -3.04719 -34.3086 -20.096 -15.1424 -1.12858 3.53538 -73.0073 -49.4999 104.265 -43.9963 -10.5917 -15.9603 17.7002 58.1847 -15.3891 -7.02673 0.123525 -9.63348 16.6892 -1.47116 -4.50387 -19.6127 -1.71735 11.2086 
230.48 95.9969 -213.469 -91.607 -55.739 -93.4158 179.656 22.6438 87.3082 -7.70587 10.2688 1.823 51.7689 -0.81109 1.74766 40.9747 -1.12707 9.83938 172.642 -2.31166 86.2172 -32.0302 -5.40102 -0.524225 69.5663 -1.07546 20.2836 48.4747 -2.90602 1.82425 0.417536 8.31301 -89.9586 10.248 0.850955 0.00948995 -1.4227 0.850566 -0.0279875 -23.9599 0.808755 0.26482 -3.94728 0.80876 0.264805 109.796 -52.3314 -70.6188 29.0281 -8.57651 -21.5752 -2.92892 -30.74 -22.6511 -15.6093 -0.82357 0.978814 -73.6953 -48.6063 103.281 -43.998 -12.0059 -13.3586 19.1872 57.7127 -17.0432 -7.72666 0.0922143 -8.26603 17.2672 -1.49919 -5.85173 -20.3241 -1.62244 12.7301 
